# xmcd CD Database Entry
#
# Track frame offsets:
# 150
# 10042
# 18345
# 26542
# 35760
# 44704
# 52894
# 61729
# 69960
# 77038
# 85982
# 94864
# 103030
# 112020
# 119544
# 127241
# 134685
# 142431
# 154896
# 164259
# 173891
# 183897
# 191388
# 200285
# 211930
# 221831
# 230460
# 239514
# 248472
# 261231
# 265064
# 266496
# 267756
# 269167
# 270712
# 272139
# 273754
# 275086
# 276613
# 278321
# 279680
# 281035
# 282338
# 283897
# 285297
# 286957
#
# Disc length: 3857 seconds
#
# Revision: 1
# Processed by: cddbd v1.4PL0 Copyright (c) Steve Scherf et al.
# Submitted via: tcd 2.0b
#
DISCID=de0f0f2e
DTITLE=不明 - 不明
DYEAR=1900
DGENRE=
TTITLE0=第 1 音軌
TTITLE1=第 2 音軌
TTITLE2=第 3 音軌
TTITLE3=第 4 音軌
TTITLE4=第 5 音軌
TTITLE5=第 6 音軌
TTITLE6=第 7 音軌
TTITLE7=第 8 音軌
TTITLE8=第 9 音軌
TTITLE9=第 10 音軌
TTITLE10=第 11 音軌
TTITLE11=第 12 音軌
TTITLE12=第 13 音軌
TTITLE13=第 14 音軌
TTITLE14=第 15 音軌
TTITLE15=第 16 音軌
TTITLE16=第 17 音軌
TTITLE17=第 18 音軌
TTITLE18=第 19 音軌
TTITLE19=第 20 音軌
TTITLE20=第 21 音軌
TTITLE21=第 22 音軌
TTITLE22=第 23 音軌
TTITLE23=第 24 音軌
TTITLE24=第 25 音軌
TTITLE25=第 26 音軌
TTITLE26=第 27 音軌
TTITLE27=第 28 音軌
TTITLE28=第 29 音軌
TTITLE29=第 30 音軌
TTITLE30=第 31 音軌
TTITLE31=第 32 音軌
TTITLE32=第 33 音軌
TTITLE33=第 34 音軌
TTITLE34=第 35 音軌
TTITLE35=第 36 音軌
TTITLE36=第 37 音軌
TTITLE37=第 38 音軌
TTITLE38=第 39 音軌
TTITLE39=第 40 音軌
TTITLE40=第 41 音軌
TTITLE41=第 42 音軌
TTITLE42=第 43 音軌
TTITLE43=第 44 音軌
TTITLE44=第 45 音軌
TTITLE45=第 46 音軌
EXTD=
EXTT0=
EXTT1=
EXTT2=
EXTT3=
EXTT4=
EXTT5=
EXTT6=
EXTT7=
EXTT8=
EXTT9=
EXTT10=
EXTT11=
EXTT12=
EXTT13=
EXTT14=
EXTT15=
EXTT16=
EXTT17=
EXTT18=
EXTT19=
EXTT20=
EXTT21=
EXTT22=
EXTT23=
EXTT24=
EXTT25=
EXTT26=
EXTT27=
EXTT28=
EXTT29=
EXTT30=
EXTT31=
EXTT32=
EXTT33=
EXTT34=
EXTT35=
EXTT36=
EXTT37=
EXTT38=
EXTT39=
EXTT40=
EXTT41=
EXTT42=
EXTT43=
EXTT44=
EXTT45=
PLAYORDER=
